# xmcd
#
# Track frame offsets:
#	150
#	13257
#	29688
#	48176
#	62011
#	73201
#	85289
#	103374
#	113718
#	125508
#	137468
#	150842
#	167111
#	213545
#	235523
#	255651
#	269712
#	280181
#
# Disc length: 3876 seconds
#
# Revision: 1
# Processed by: cddbd v1.5.1PL0 Copyright (c) Steve Scherf et al.
# Submitted via: audiograbber 1.82.02
#
DISCID=060f2212
DTITLE=Nina Simone - Gold - CD 1
DYEAR=2004
DGENRE=Soul
TTITLE0=Feeling Good
TTITLE1=My Baby Just Cares For Me
TTITLE2=Love Me Or Leave Me
TTITLE3=Don't you pay them no mind
TTITLE4=I love your lovin' ways
TTITLE5=Nobody knows you when you're down and out
TTITLE6=Mood indigo Leave You
TTITLE7=I'm gonna leave you
TTITLE8=See-Line Woman
TTITLE9=Break Down And let it all out
TTITLE10=This year's kisses
TTITLE11=Ne me quitte pas
TTITLE12=Sinnerman
TTITLE13=Missipi Goddam
TTITLE14=Take me to the water
TTITLE15=Work Song
TTITLE16=I hold no grudge
TTITLE17=I'm going back home
EXTD=
EXTT0=
EXTT1=
EXTT2=
EXTT3=
EXTT4=
EXTT5=
EXTT6=
EXTT7=
EXTT8=
EXTT9=
EXTT10=
EXTT11=
EXTT12=
EXTT13=
EXTT14=
EXTT15=
EXTT16=
EXTT17=
PLAYORDER=
